<?xml version="1.0" encoding="UTF-8"?>
<svg version="1.1" xmlns="http://www.w3.org/2000/svg" width="32" height="32">
<path d="M0 0 C10.56 0 21.12 0 32 0 C32 10.56 32 21.12 32 32 C21.44 32 10.88 32 0 32 C0 21.44 0 10.88 0 0 Z " fill="#0C0D0C" transform="translate(0,0)"/>
<path d="M0 0 C10.56 0 21.12 0 32 0 C32 10.56 32 21.12 32 32 C27.05 32 22.1 32 17 32 C22 28 22 28 26 28 C27.38949558 19.00200434 28.4262611 10.08923201 29 1 C24.42251491 3.8795976 24.42251491 3.8795976 21 8 C17.25703478 8.86957778 13.75854094 8.73657312 10 8 C6.88080528 6.04381236 4.44219954 3.74310091 2 1 C2.144375 1.77601562 2.28875 2.55203125 2.4375 3.3515625 C4.00849795 12.4938978 5.77154974 22.93148925 3 32 C2.01 32 1.02 32 0 32 C0 21.44 0 10.88 0 0 Z " fill="#BFBFB7" transform="translate(0,0)"/>
<path d="M0 0 C1.65 0 3.3 0 5 0 C5 10.56 5 21.12 5 32 C0.05 32 -4.9 32 -10 32 C-5 28 -5 28 -1 28 C0.38949558 19.00200434 1.4262611 10.08923201 2 1 C1.34 0.67 0.68 0.34 0 0 Z " fill="#A2A091" transform="translate(27,0)"/>
<path d="M0 0 C0.66 0 1.32 0 2 0 C2 0.66 2 1.32 2 2 C2.66 2 3.32 2 4 2 C4.66 2.66 5.32 3.32 6 4 C6.33 3.34 6.66 2.68 7 2 C8 3 8 3 8.09765625 5.72265625 C8.08605469 6.82480469 8.07445312 7.92695313 8.0625 9.0625 C8.05347656 10.16722656 8.04445313 11.27195312 8.03515625 12.41015625 C8.02355469 13.26480469 8.01195312 14.11945312 8 15 C8.66 15.33 9.32 15.66 10 16 C10 14.68 10 13.36 10 12 C10.99 12 11.98 12 13 12 C13 12.99 13 13.98 13 15 C13.66 15.33 14.32 15.66 15 16 C10.53794887 18.23102556 3.78092876 17.04346299 -1 17 C-0.67 11.39 -0.34 5.78 0 0 Z " fill="#212024" transform="translate(4,15)"/>
<path d="M0 0 C0.24290571 17.2193159 0.24290571 17.2193159 -1 23 C-1.66 23.66 -2.32 24.32 -3 25 C-4.04225175 19.91902274 -4.07822869 15.16309352 -4 10 C-8.95 9.67 -13.9 9.34 -19 9 C-19 8.01 -19 7.02 -19 6 C-15.37 6.33 -11.74 6.66 -8 7 C-7.34 5.68 -6.68 4.36 -6 3 C-2.57142857 0 -2.57142857 0 0 0 Z " fill="#24241F" transform="translate(29,1)"/>
<path d="M0 0 C0.33 0.66 0.66 1.32 1 2 C2.65 2 4.3 2 6 2 C6.28875 2.639375 6.5775 3.27875 6.875 3.9375 C7.82823451 6.15206079 7.82823451 6.15206079 10 7 C10 5.68 10 4.36 10 3 C10.99 3 11.98 3 13 3 C13 3.99 13 4.98 13 6 C13.66 6.33 14.32 6.66 15 7 C11.99686252 8.50156874 9.20932478 8.09281204 5.875 8.0625 C4.59367188 8.05347656 3.31234375 8.04445313 1.9921875 8.03515625 C0.51105469 8.01775391 0.51105469 8.01775391 -1 8 C-0.67 5.36 -0.34 2.72 0 0 Z " fill="#6A6F70" transform="translate(4,24)"/>
<path d="M0 0 C-0.99 0.495 -0.99 0.495 -2 1 C-2.40729228 3.32156597 -2.74438677 5.6568787 -3 8 C-3.66 8 -4.32 8 -5 8 C-5 7.01 -5 6.02 -5 5 C-5.99 5 -6.98 5 -8 5 C-8 6.32 -8 7.64 -8 9 C-8.99 8.67 -9.98 8.34 -11 8 C-10.5154185 1.45814978 -10.5154185 1.45814978 -8.3125 -0.5 C-5.31349776 -1.14843292 -2.96844996 -0.67464772 0 0 Z " fill="#110E0D" transform="translate(22,22)"/>
<path d="M0 0 C4.29 0 8.58 0 13 0 C12.34 1.65 11.68 3.3 11 5 C11 5.66 11 6.32 11 7 C9.68 7 8.36 7 7 7 C7 6.34 7 5.68 7 5 C6.401875 4.9175 5.80375 4.835 5.1875 4.75 C3 4 3 4 0 0 Z " fill="#C5C6BE" transform="translate(6,0)"/>
<path d="M0 0 C0.33 0 0.66 0 1 0 C2.49565341 7.8521804 3.40802782 17.29813325 1 25 C0.01 25 -0.98 25 -2 25 C-2 22.03 -2 19.06 -2 16 C-1.34 15.67 -0.68 15.34 0 15 C0 10.05 0 5.1 0 0 Z " fill="#AEAFAB" transform="translate(2,7)"/>
<path d="M0 0 C-0.33 1.98 -0.66 3.96 -1 6 C-0.01 6.66 0.98 7.32 2 8 C2 8.66 2 9.32 2 10 C-0.31 10.66 -2.62 11.32 -5 12 C-4.67 9.36 -4.34 6.72 -4 4 C-4.66 3.67 -5.32 3.34 -6 3 C-6 2.01 -6 1.02 -6 0 C-3.50907189 -1.24546405 -2.58919267 -0.7767578 0 0 Z " fill="#212223" transform="translate(24,18)"/>
<path d="M0 0 C0.33 0 0.66 0 1 0 C1.33923576 2.35344806 1.67150534 4.7075484 2 7.0625 C2.09539062 7.71927734 2.19078125 8.37605469 2.2890625 9.05273438 C2.88880474 13.40086564 3.262849 17.61370734 3 22 C2.34 22.66 1.68 23.32 1 24 C-0 23 -0 23 -0.11352539 20.77514648 C-0.10828857 19.81680908 -0.10305176 18.85847168 -0.09765625 17.87109375 C-0.09443359 16.83662109 -0.09121094 15.80214844 -0.08789062 14.73632812 C-0.07951172 13.64771484 -0.07113281 12.55910156 -0.0625 11.4375 C-0.05798828 10.34501953 -0.05347656 9.25253906 -0.04882812 8.12695312 C-0.03699826 5.41791505 -0.02051543 2.70898401 0 0 Z " fill="#CACBC5" transform="translate(0,0)"/>
<path d="M0 0 C3.76687864 1.88343932 4.79421646 2.69132469 7 6 C6.34 6.66 5.68 7.32 5 8 C4.855625 8.680625 4.71125 9.36125 4.5625 10.0625 C4.2840625 11.0215625 4.2840625 11.0215625 4 12 C3.01 12.33 2.02 12.66 1 13 C0.67 8.71 0.34 4.42 0 0 Z " fill="#282924" transform="translate(2,1)"/>
<path d="M0 0 C1.65 0 3.3 0 5 0 C5.05383848 2.45862401 5.09359038 4.9160755 5.125 7.375 C5.14175781 8.07367188 5.15851562 8.77234375 5.17578125 9.4921875 C5.19344267 11.32897486 5.10303261 13.16601963 5 15 C4.34 15.66 3.68 16.32 3 17 C1.85922343 13.57767028 1.90184883 10.91326783 1.9375 7.3125 C1.94652344 6.13300781 1.95554687 4.95351562 1.96484375 3.73828125 C1.97644531 2.83464844 1.98804687 1.93101562 2 1 C1.34 0.67 0.68 0.34 0 0 Z " fill="#9C9B86" transform="translate(27,0)"/>
<path d="M0 0 C2.31 0.33 4.62 0.66 7 1 C7.33 1.99 7.66 2.98 8 4 C10.01508358 4.73323796 10.01508358 4.73323796 12 5 C12 5.66 12 6.32 12 7 C14.64 7 17.28 7 20 7 C20 7.33 20 7.66 20 8 C10.73004484 9.0735426 10.73004484 9.0735426 6.48828125 6.44140625 C4.54378823 4.70637388 2.73229088 2.945725 1 1 C0.67 2.32 0.34 3.64 0 5 C0 3.35 0 1.7 0 0 Z " fill="#A6A7A1" transform="translate(1,0)"/>
<path d="M0 0 C0.66 0.33 1.32 0.66 2 1 C2 1.66 2 2.32 2 3 C1.38125 3.268125 0.7625 3.53625 0.125 3.8125 C-2.2995233 4.95556848 -2.2995233 4.95556848 -4 8 C-6.6015625 8.29296875 -6.6015625 8.29296875 -9.625 8.1875 C-11.12933594 8.14689453 -11.12933594 8.14689453 -12.6640625 8.10546875 C-13.43492188 8.07066406 -14.20578125 8.03585937 -15 8 C-15 7.01 -15 6.02 -15 5 C-11.37 5.33 -7.74 5.66 -4 6 C-3.34 4.68 -2.68 3.36 -2 2 C-1.34 1.34 -0.68 0.68 0 0 Z " fill="#3D3D3A" transform="translate(25,2)"/>
<path d="M0 0 C0.66 0 1.32 0 2 0 C2 4.29 2 8.58 2 13 C1.01 12.01 0.02 11.02 -1 10 C-1 9.01 -1 8.02 -1 7 C-1.99 7 -2.98 7 -4 7 C-4 5 -4 5 -2.5625 3.5 C-2.046875 3.005 -1.53125 2.51 -1 2 C-0.67 1.34 -0.34 0.68 0 0 Z " fill="#2F2C29" transform="translate(27,1)"/>
<path d="M0 0 C0 0.99 0 1.98 0 3 C1.32 3.33 2.64 3.66 4 4 C-0.29 4 -4.58 4 -9 4 C-4 0 -4 0 0 0 Z " fill="#818381" transform="translate(26,28)"/>
<path d="M0 0 C0.33 0.66 0.66 1.32 1 2 C2.65 2 4.3 2 6 2 C6 2.99 6 3.98 6 5 C4.35 4.67 2.7 4.34 1 4 C1 5.32 1 6.64 1 8 C0.34 8 -0.32 8 -1 8 C-0.67 5.36 -0.34 2.72 0 0 Z " fill="#414546" transform="translate(4,24)"/>
<path d="M0 0 C2.97 0.495 2.97 0.495 6 1 C5.625 3.9375 5.625 3.9375 5 7 C4.01 7.495 4.01 7.495 3 8 C3 6.68 3 5.36 3 4 C1.68 3.34 0.36 2.68 -1 2 C-0.67 1.34 -0.34 0.68 0 0 Z " fill="#1C191A" transform="translate(22,7)"/>
<path d="M0 0 C1.65 0.99 3.3 1.98 5 3 C4.34 4.32 3.68 5.64 3 7 C2.01 7 1.02 7 0 7 C0 4.69 0 2.38 0 0 Z " fill="#0E1012" transform="translate(5,19)"/>
<path d="M0 0 C2.31 0.33 4.62 0.66 7 1 C7 2.32 7 3.64 7 5 C5.02 3.68 3.04 2.36 1 1 C0.67 2.32 0.34 3.64 0 5 C0 3.35 0 1.7 0 0 Z " fill="#B0B1AD" transform="translate(1,0)"/>
<path d="M0 0 C0.66 0 1.32 0 2 0 C2 0.66 2 1.32 2 2 C2.66 2.33 3.32 2.66 4 3 C3.67 4.32 3.34 5.64 3 7 C2.67 6.67 2.34 6.34 2 6 C1.34 6.99 0.68 7.98 0 9 C0 6.03 0 3.06 0 0 Z " fill="#1C1C1B" transform="translate(4,15)"/>
<path d="M0 0 C1.67542976 0.28604898 3.34385343 0.61781233 5 1 C5 1.66 5 2.32 5 3 C2.69 3.66 0.38 4.32 -2 5 C-1.125 1.125 -1.125 1.125 0 0 Z " fill="#343636" transform="translate(21,25)"/>
<path d="M0 0 C1.98 0.99 1.98 0.99 4 2 C4 3.65 4 5.3 4 7 C2.68 6.67 1.36 6.34 0 6 C0 4.02 0 2.04 0 0 Z " fill="#3E3F3B" transform="translate(2,1)"/>
<path d="M0 0 C1.65 0 3.3 0 5 0 C5 1.98 5 3.96 5 6 C4.01 6.33 3.02 6.66 2 7 C2 5.02 2 3.04 2 1 C1.34 0.67 0.68 0.34 0 0 Z " fill="#81806F" transform="translate(27,0)"/>
<path d="M0 0 C0.99 0 1.98 0 3 0 C3 0.99 3 1.98 3 3 C3.66 3.33 4.32 3.66 5 4 C3.02 4.33 1.04 4.66 -1 5 C-0.67 3.35 -0.34 1.7 0 0 Z " fill="#504948" transform="translate(14,27)"/>
</svg>
